<svg xmlns="http://www.w3.org/2000/svg"
  xmlns:xlink="http://www.w3.org/1999/xlink" version="1.1" width="256"
  height="256" viewBox="0 0 256 256" xml:space="preserve">
  <circle r="128" cx="128" cy="128" fill="rgb(240, 250, 250)" />


  <g style="stroke: none; stroke-width: 1; stroke-dasharray: none; stroke-linecap: butt; stroke-linejoin: miter; stroke-miterlimit: 10; fill: rgb(0,0,0); fill-rule: nonzero; opacity: 1;"
    transform="translate(16 16) scale(2.5 2.5)">
    <path
      d="M 38.999 17.44 c -4.232 0.913 -8.065 2.791 -11.313 5.354 c -0.045 0.025 -0.091 0.047 -0.132 0.079 c -2.093 1.664 -3.905 3.609 -5.427 5.743 c -0.006 0.009 -0.013 0.018 -0.019 0.027 c -0.474 0.666 -0.921 1.349 -1.335 2.05 c -0.016 0.027 -0.033 0.052 -0.048 0.079 c -0.146 0.25 -0.285 0.503 -0.424 0.757 c -0.129 0.235 -0.254 0.471 -0.377 0.709 c -0.1 0.196 -0.201 0.391 -0.296 0.589 c -0.224 0.463 -0.439 0.931 -0.638 1.406 c -0.001 0.002 -0.001 0.003 -0.002 0.005 c -0.217 0.518 -0.414 1.045 -0.601 1.577 c -0.021 0.059 -0.041 0.118 -0.061 0.177 c -0.563 1.638 -0.978 3.333 -1.231 5.067 c -0.002 0.012 -0.004 0.025 -0.005 0.037 c -0.165 1.14 -0.261 2.295 -0.282 3.461 c -0.001 0.079 0 0.159 -0.001 0.238 c -0.004 0.465 0.003 0.931 0.023 1.399 c 0.005 0.131 0.01 0.262 0.017 0.393 c 0.03 0.545 0.072 1.09 0.135 1.638 c 0.066 0.566 0.152 1.126 0.249 1.682 c 0.005 0.028 0.011 0.056 0.016 0.084 c 1.169 6.559 4.532 12.357 9.637 16.619 c 0.046 0.039 0.091 0.079 0.137 0.118 c 0.396 0.327 0.802 0.645 1.219 0.953 c 0.018 0.013 0.035 0.028 0.053 0.041 c 0.53 0.39 1.08 0.755 1.639 1.108 c 0.141 0.089 0.281 0.179 0.424 0.266 c 0.508 0.309 1.024 0.603 1.551 0.88 c 0.206 0.108 0.414 0.209 0.622 0.312 c 0.16 0.079 0.317 0.164 0.479 0.24 c 0.022 0.01 0.046 0.007 0.068 0.015 c 3.716 1.743 7.747 2.665 11.869 2.665 c 1.401 0 2.813 -0.104 4.225 -0.314 c 5.207 -0.779 10.031 -2.999 13.982 -6.322 c 0.011 -0.009 0.025 -0.011 0.036 -0.021 c 0.055 -0.046 0.104 -0.097 0.158 -0.144 c 0.447 -0.382 0.883 -0.777 1.306 -1.188 c 0.037 -0.036 0.075 -0.07 0.112 -0.106 c 0.461 -0.453 0.906 -0.923 1.336 -1.408 c 0.076 -0.086 0.148 -0.174 0.223 -0.26 c 0.338 -0.391 0.666 -0.792 0.984 -1.202 c 0.1 -0.13 0.201 -0.259 0.3 -0.39 c 0.372 -0.499 0.734 -1.007 1.075 -1.533 c 3.734 -5.766 5.231 -12.687 4.215 -19.49 c -0.725 -4.845 -2.698 -9.428 -5.709 -13.254 C 60.454 19.025 49.657 15.139 38.999 17.44 z M 28.726 34.105 c 0.083 0.552 -0.055 1.104 -0.387 1.552 s -0.819 0.741 -1.372 0.824 c -1.081 0.161 -2.034 0.734 -2.683 1.612 c -0.65 0.878 -0.919 1.957 -0.758 3.038 l 0.943 6.311 c 0.083 0.552 -0.055 1.103 -0.387 1.552 c -0.332 0.448 -0.819 0.741 -1.372 0.823 l -3.364 0.504 c -0.08 -0.379 -0.149 -0.753 -0.21 -1.124 c -0.064 -0.398 -0.123 -0.799 -0.17 -1.203 c -0.056 -0.481 -0.094 -0.963 -0.122 -1.445 c -0.007 -0.117 -0.01 -0.234 -0.015 -0.351 c -0.017 -0.388 -0.027 -0.775 -0.026 -1.162 c 0 -0.098 0 -0.196 0.002 -0.294 c 0.041 -3.065 0.629 -6.094 1.711 -8.944 c 0 0 0 -0.001 0.001 -0.001 c 0.165 -0.434 0.345 -0.862 0.532 -1.286 c 0.042 -0.095 0.084 -0.189 0.127 -0.283 c 0.152 -0.335 0.314 -0.666 0.48 -0.995 c 0.06 -0.118 0.116 -0.237 0.178 -0.354 c 0.198 -0.377 0.406 -0.749 0.621 -1.116 c 0.142 -0.241 0.292 -0.476 0.441 -0.713 c 0.081 -0.128 0.161 -0.257 0.244 -0.384 c 0.178 -0.271 0.361 -0.539 0.548 -0.803 c 0.044 -0.062 0.088 -0.123 0.133 -0.184 c 1.067 -1.477 2.287 -2.843 3.636 -4.076 L 28.726 34.105 z M 31.979 66.671 l 0.174 1.165 c -0.033 -0.018 -0.065 -0.036 -0.098 -0.055 c -0.364 -0.207 -0.72 -0.424 -1.073 -0.647 c -0.093 -0.059 -0.187 -0.115 -0.279 -0.175 c -0.417 -0.272 -0.828 -0.553 -1.228 -0.847 c -2.925 -2.149 -5.394 -4.919 -7.204 -8.066 l 11.787 -1.762 c 0.862 -0.127 1.68 0.472 1.81 1.339 l 0.472 3.155 c 0.063 0.421 -0.042 0.841 -0.294 1.183 s -0.624 0.564 -1.045 0.627 C 33.042 62.88 31.688 64.713 31.979 66.671 z M 48.872 70.916 c -5.012 0.75 -10.015 0.046 -14.531 -1.975 l -0.383 -2.565 c -0.13 -0.869 0.471 -1.681 1.338 -1.811 c 0.949 -0.142 1.786 -0.645 2.357 -1.416 c 0.571 -0.771 0.807 -1.718 0.665 -2.667 l -0.471 -3.155 c -0.292 -1.959 -2.124 -3.308 -4.083 -3.022 l -12.482 1.866 c -0.587 -1.252 -1.076 -2.553 -1.46 -3.898 l 3.184 -0.476 c 1.081 -0.161 2.034 -0.734 2.684 -1.612 c 0.65 -0.879 0.918 -1.957 0.757 -3.037 l -0.943 -6.311 c -0.17 -1.14 0.619 -2.206 1.759 -2.376 c 1.081 -0.161 2.034 -0.734 2.684 -1.612 s 0.918 -1.957 0.757 -3.038 l -1.45 -9.706 c 2.943 -2.245 6.383 -3.892 10.167 -4.708 c 1.886 -0.407 3.775 -0.605 5.643 -0.605 c 2.724 0 5.398 0.432 7.943 1.246 c -0.239 1.059 -1.1 1.904 -2.215 2.071 l -6.113 0.913 c -2.557 0.382 -4.326 2.773 -3.944 5.331 l 0.236 1.577 c 0.185 1.239 0.841 2.331 1.848 3.076 c 1.006 0.745 2.243 1.051 3.481 0.868 l 6.762 -1.011 c 0.711 -0.104 1.42 0.071 1.997 0.498 c 0.577 0.427 0.954 1.053 1.06 1.763 c 0.219 1.467 -0.795 2.838 -2.261 3.057 l -8.339 1.247 c -1.239 0.185 -2.331 0.841 -3.076 1.848 s -1.053 2.243 -0.868 3.482 l 0.34 2.274 c 0.322 2.159 1.466 4.062 3.221 5.361 c 1.754 1.298 3.913 1.837 6.067 1.513 l 1.871 -0.279 c 3.58 -0.534 6.927 1.942 7.464 5.534 l 0.929 6.22 C 57.872 68.283 53.535 70.219 48.872 70.916 z M 70.914 41.127 c 0.944 6.32 -0.445 12.751 -3.915 18.106 c -0.261 0.404 -0.534 0.8 -0.818 1.189 c -0.078 0.107 -0.162 0.209 -0.242 0.315 c -0.212 0.282 -0.425 0.564 -0.649 0.837 c -0.078 0.096 -0.162 0.187 -0.241 0.282 c -0.235 0.278 -0.471 0.555 -0.717 0.824 c -0.076 0.084 -0.157 0.163 -0.234 0.246 c -0.256 0.272 -0.515 0.541 -0.782 0.803 c -0.021 0.02 -0.042 0.04 -0.063 0.06 l -0.738 -4.94 c -0.635 -4.243 -4.298 -7.299 -8.465 -7.299 c -0.419 0 -0.844 0.031 -1.271 0.095 l -1.871 0.279 c -1.635 0.246 -3.259 -0.162 -4.583 -1.142 c -1.325 -0.981 -2.188 -2.419 -2.432 -4.049 l -0.34 -2.275 c -0.106 -0.71 0.071 -1.419 0.498 -1.997 c 0.427 -0.577 1.053 -0.953 1.764 -1.06 l 8.339 -1.246 c 2.557 -0.382 4.326 -2.773 3.944 -5.33 c -0.186 -1.239 -0.842 -2.331 -1.849 -3.076 c -1.007 -0.745 -2.245 -1.049 -3.481 -0.868 l -6.762 1.011 c -0.713 0.106 -1.419 -0.071 -1.997 -0.498 s -0.954 -1.054 -1.06 -1.764 l -0.235 -1.577 c -0.219 -1.467 0.795 -2.838 2.262 -3.057 l 6.113 -0.914 c 1.851 -0.277 3.314 -1.619 3.812 -3.338 c 3.129 1.279 5.965 3.138 8.371 5.474 c 0.035 0.034 0.07 0.066 0.105 0.1 c 0.339 0.333 0.666 0.679 0.988 1.031 c 0.062 0.068 0.126 0.132 0.187 0.2 c 0.366 0.409 0.72 0.829 1.061 1.262 C 68.408 32.367 70.241 36.625 70.914 41.127 z" />
    <path
      d="M 89.145 35.76 l -2.135 -3.477 c -0.312 -0.508 -0.502 -1.092 -0.549 -1.688 l -0.316 -4.066 c -0.12 -1.545 -0.836 -2.951 -2.017 -3.958 l -3.103 -2.646 c -0.456 -0.389 -0.817 -0.886 -1.045 -1.438 l -1.559 -3.769 c -0.583 -1.413 -1.728 -2.557 -3.14 -3.141 l -3.77 -1.557 c -0.553 -0.229 -1.05 -0.59 -1.438 -1.045 l -2.646 -3.104 c -0.991 -1.163 -2.434 -1.898 -3.956 -2.016 l -4.066 -0.317 c -0.597 -0.046 -1.181 -0.236 -1.689 -0.549 L 54.24 0.856 c -1.321 -0.811 -2.877 -1.057 -4.387 -0.695 l -3.966 0.955 c -0.581 0.14 -1.195 0.14 -1.776 0 l -3.965 -0.955 c -1.486 -0.358 -3.084 -0.105 -4.387 0.695 L 32.284 2.99 c -0.471 0.289 -0.618 0.904 -0.329 1.375 c 0.289 0.47 0.904 0.62 1.375 0.329 l 3.476 -2.134 c 0.854 -0.523 1.9 -0.689 2.872 -0.455 l 3.965 0.955 c 0.889 0.214 1.827 0.214 2.713 0 l 3.966 -0.955 c 0.984 -0.236 2.006 -0.077 2.871 0.455 l 3.477 2.134 c 0.778 0.478 1.67 0.768 2.58 0.839 l 4.067 0.317 c 0.996 0.077 1.94 0.559 2.59 1.32 l 2.646 3.103 c 0.591 0.694 1.351 1.246 2.195 1.596 l 3.77 1.558 c 0.924 0.382 1.673 1.131 2.056 2.056 l 1.558 3.768 c 0.348 0.842 0.898 1.602 1.596 2.196 l 3.103 2.646 c 0.773 0.659 1.242 1.58 1.32 2.591 l 0.316 4.067 c 0.072 0.911 0.362 1.804 0.839 2.579 l 2.134 3.476 c 0.523 0.853 0.689 1.899 0.455 2.872 c -0.13 0.537 0.2 1.077 0.737 1.207 c 0.079 0.019 0.157 0.028 0.235 0.028 c 0.451 0 0.86 -0.308 0.971 -0.766 C 90.197 38.662 89.943 37.062 89.145 35.76 z" />
    <path
      d="M 15.481 76.574 c -0.924 -0.383 -1.674 -1.132 -2.056 -2.056 l -1.558 -3.77 c -0.349 -0.845 -0.901 -1.604 -1.595 -2.195 l -3.104 -2.646 c -0.761 -0.649 -1.243 -1.594 -1.32 -2.591 L 5.533 59.25 c -0.071 -0.91 -0.361 -1.802 -0.839 -2.58 L 2.56 53.193 c -0.531 -0.864 -0.692 -1.885 -0.455 -2.871 l 0.955 -3.966 c 0.214 -0.887 0.214 -1.826 0 -2.713 l -0.955 -3.965 c -0.234 -0.973 -0.068 -2.02 0.455 -2.872 l 2.134 -3.476 c 0.478 -0.778 0.768 -1.67 0.839 -2.581 l 0.317 -4.066 c 0.079 -1.012 0.547 -1.932 1.32 -2.591 l 3.104 -2.646 c 0.695 -0.592 1.247 -1.352 1.595 -2.195 l 1.558 -3.77 c 0.382 -0.924 1.131 -1.674 2.056 -2.056 l 3.77 -1.558 c 0.844 -0.349 1.603 -0.9 2.195 -1.595 c 0.358 -0.42 0.309 -1.051 -0.112 -1.41 c -0.421 -0.359 -1.052 -0.309 -1.41 0.112 c -0.388 0.455 -0.885 0.816 -1.438 1.044 l -3.77 1.558 c -1.412 0.584 -2.557 1.729 -3.141 3.141 l -1.558 3.77 c -0.228 0.552 -0.589 1.049 -1.044 1.438 l -3.104 2.646 c -1.18 1.007 -1.896 2.413 -2.016 3.958 l -0.317 4.066 c -0.046 0.596 -0.236 1.18 -0.549 1.689 L 0.856 35.76 c -0.8 1.302 -1.053 2.901 -0.695 4.387 l 0.955 3.965 c 0.14 0.581 0.14 1.195 0 1.776 l -0.955 3.966 c -0.363 1.508 -0.117 3.065 0.695 4.387 l 2.134 3.477 c 0.312 0.509 0.502 1.093 0.549 1.689 l 0.317 4.065 c 0.118 1.523 0.853 2.966 2.016 3.957 l 3.104 2.646 c 0.454 0.388 0.815 0.885 1.044 1.438 l 1.558 3.77 c 0.583 1.412 1.728 2.557 3.141 3.14 c 0.125 0.052 0.254 0.076 0.381 0.076 c 0.393 0 0.765 -0.232 0.925 -0.618 C 16.235 77.369 15.992 76.785 15.481 76.574 z" />
    <path
      d="M 86.682 56.342 c -0.471 -0.29 -1.087 -0.144 -1.375 0.328 c -0.478 0.776 -0.768 1.668 -0.84 2.581 l -0.316 4.066 c -0.077 0.996 -0.559 1.94 -1.319 2.59 l -3.104 2.646 c -0.696 0.593 -1.248 1.353 -1.595 2.195 l -1.559 3.77 c -0.388 0.938 -1.118 1.668 -2.056 2.056 l -3.769 1.558 c -0.844 0.348 -1.604 0.899 -2.196 1.596 l -2.646 3.104 c -0.649 0.761 -1.594 1.242 -2.59 1.319 l -4.067 0.316 c -0.912 0.072 -1.804 0.362 -2.58 0.839 l -3.477 2.134 c -0.865 0.532 -1.888 0.693 -2.871 0.454 l -3.966 -0.954 c -0.888 -0.215 -1.826 -0.214 -2.713 -0.001 l -3.965 0.956 c -0.973 0.232 -2.019 0.069 -2.872 -0.455 l -3.475 -2.133 c -0.776 -0.478 -1.669 -0.768 -2.581 -0.84 l -4.066 -0.316 c -0.553 -0.035 -1.031 0.369 -1.075 0.92 c -0.043 0.55 0.369 1.031 0.919 1.074 l 4.065 0.316 c 0.598 0.047 1.182 0.237 1.69 0.55 l 3.476 2.134 c 0.915 0.562 1.975 0.854 3.04 0.854 c 0.452 0 0.904 -0.053 1.347 -0.159 l 3.965 -0.955 c 0.581 -0.141 1.196 -0.141 1.776 0 l 3.966 0.954 c 1.484 0.359 3.082 0.106 4.387 -0.693 l 3.477 -2.135 c 0.509 -0.312 1.093 -0.502 1.688 -0.549 l 4.066 -0.316 c 1.523 -0.118 2.966 -0.854 3.957 -2.017 l 2.646 -3.104 c 0.389 -0.455 0.886 -0.815 1.438 -1.044 l 3.77 -1.559 c 1.433 -0.592 2.548 -1.707 3.14 -3.14 l 1.56 -3.771 c 0.228 -0.551 0.588 -1.048 1.043 -1.437 l 3.104 -2.646 c 1.163 -0.991 1.898 -2.434 2.017 -3.957 l 0.316 -4.065 c 0.047 -0.597 0.236 -1.181 0.549 -1.689 C 87.3 57.247 87.152 56.631 86.682 56.342 z" />
    <path
      d="M 81.016 41.544 c 0.359 -1.485 0.106 -3.084 -0.693 -4.387 l -1.383 -2.252 c -0.312 -0.508 -0.502 -1.092 -0.549 -1.688 l -0.205 -2.633 c -0.118 -1.523 -0.854 -2.965 -2.017 -3.957 l -2.009 -1.714 c -0.456 -0.389 -0.817 -0.886 -1.045 -1.437 l -1.009 -2.441 c -0.211 -0.511 -0.796 -0.751 -1.306 -0.542 c -0.511 0.211 -0.753 0.796 -0.542 1.306 l 1.008 2.441 c 0.348 0.842 0.898 1.601 1.596 2.195 l 2.01 1.714 c 0.761 0.649 1.242 1.594 1.319 2.591 l 0.205 2.634 c 0.072 0.911 0.362 1.804 0.839 2.579 l 1.382 2.251 c 0.523 0.853 0.689 1.9 0.454 2.873 l -0.618 2.567 c -0.214 0.888 -0.213 1.826 0 2.713 l 0.619 2.568 c 0.237 0.986 0.076 2.006 -0.455 2.871 l -1.382 2.251 c -0.477 0.777 -0.767 1.67 -0.839 2.581 l -0.205 2.634 c -0.077 0.997 -0.559 1.941 -1.319 2.591 l -2.01 1.714 c -0.696 0.594 -1.248 1.353 -1.595 2.194 l -1.009 2.441 c -0.383 0.925 -1.132 1.674 -2.057 2.057 l -2.441 1.009 c -0.511 0.211 -0.753 0.795 -0.542 1.306 c 0.159 0.386 0.531 0.618 0.924 0.618 c 0.128 0 0.257 -0.024 0.382 -0.076 l 2.441 -1.009 c 1.412 -0.583 2.558 -1.729 3.141 -3.141 l 1.01 -2.442 c 0.227 -0.55 0.588 -1.047 1.043 -1.436 l 2.01 -1.714 c 1.163 -0.991 1.898 -2.435 2.017 -3.958 l 0.205 -2.633 c 0.047 -0.596 0.237 -1.181 0.55 -1.689 l 1.382 -2.251 c 0.799 -1.303 1.052 -2.901 0.694 -4.387 l -0.619 -2.568 c -0.14 -0.581 -0.14 -1.195 0.001 -1.776 L 81.016 41.544 z" />
    <path
      d="M 17.894 21.034 l -1.008 2.441 c -0.229 0.552 -0.59 1.049 -1.045 1.438 l -2.01 1.714 c -1.163 0.992 -1.897 2.434 -2.016 3.957 l -0.205 2.633 c -0.046 0.596 -0.236 1.18 -0.549 1.689 c -0.289 0.471 -0.142 1.086 0.329 1.375 c 0.164 0.1 0.344 0.148 0.522 0.148 c 0.336 0 0.665 -0.169 0.853 -0.477 c 0.478 -0.778 0.768 -1.67 0.839 -2.581 l 0.205 -2.633 c 0.077 -0.997 0.559 -1.941 1.32 -2.591 l 2.01 -1.714 c 0.695 -0.592 1.246 -1.351 1.595 -2.195 l 1.009 -2.441 c 0.382 -0.924 1.131 -1.674 2.056 -2.056 l 2.442 -1.009 c 0.843 -0.349 1.602 -0.9 2.194 -1.595 l 1.714 -2.01 c 0.649 -0.761 1.594 -1.243 2.591 -1.32 l 2.634 -0.205 c 0.91 -0.071 1.802 -0.361 2.58 -0.839 l 2.251 -1.382 c 0.853 -0.523 1.898 -0.688 2.872 -0.455 l 2.568 0.619 c 0.888 0.214 1.826 0.214 2.713 0 l 2.568 -0.619 c 0.987 -0.237 2.008 -0.076 2.871 0.455 l 2.252 1.382 c 0.778 0.478 1.67 0.767 2.58 0.838 l 2.634 0.205 c 0.997 0.078 1.941 0.559 2.591 1.32 c 0.357 0.421 0.99 0.47 1.409 0.112 c 0.421 -0.358 0.471 -0.989 0.112 -1.41 c -0.991 -1.163 -2.435 -1.897 -3.958 -2.016 l -2.633 -0.205 c -0.596 -0.046 -1.18 -0.236 -1.689 -0.549 l -2.251 -1.382 c -1.32 -0.811 -2.878 -1.057 -4.387 -0.695 l -2.568 0.619 c -0.581 0.14 -1.195 0.14 -1.776 0 l -2.568 -0.619 c -1.487 -0.357 -3.086 -0.104 -4.387 0.695 l -2.251 1.382 c -0.509 0.312 -1.093 0.502 -1.689 0.549 l -2.633 0.205 c -1.523 0.119 -2.965 0.853 -3.957 2.016 l -1.714 2.01 c -0.388 0.455 -0.885 0.816 -1.437 1.044 l -2.441 1.009 C 19.622 18.478 18.478 19.622 17.894 21.034 z" />
    <path
      d="M 30.583 78.186 l 2.632 0.205 c 0.598 0.047 1.182 0.237 1.69 0.55 l 2.251 1.382 c 0.915 0.562 1.976 0.854 3.041 0.854 c 0.452 0 0.904 -0.053 1.346 -0.159 l 2.568 -0.618 c 0.581 -0.141 1.195 -0.141 1.776 0 l 2.568 0.617 c 1.484 0.36 3.083 0.106 4.387 -0.693 l 2.251 -1.382 c 0.509 -0.312 1.094 -0.503 1.689 -0.55 c 0.551 -0.044 0.962 -0.525 0.919 -1.075 c -0.043 -0.551 -0.53 -0.959 -1.075 -0.919 c -0.91 0.072 -1.803 0.362 -2.58 0.839 l -2.251 1.382 c -0.865 0.532 -1.888 0.693 -2.871 0.454 l -2.568 -0.617 c -0.888 -0.215 -1.826 -0.214 -2.713 -0.001 l -2.569 0.619 c -0.972 0.232 -2.019 0.069 -2.872 -0.455 l -2.25 -1.381 c -0.776 -0.478 -1.669 -0.768 -2.581 -0.84 l -2.633 -0.205 c -0.997 -0.077 -1.941 -0.559 -2.591 -1.319 l -1.714 -2.011 c -0.594 -0.696 -1.354 -1.247 -2.195 -1.594 l -2.441 -1.009 c -0.924 -0.383 -1.673 -1.132 -2.056 -2.057 l -1.009 -2.441 c -0.349 -0.844 -0.9 -1.603 -1.595 -2.194 l -2.01 -1.714 c -0.761 -0.649 -1.242 -1.594 -1.32 -2.591 l -0.205 -2.635 c -0.071 -0.909 -0.361 -1.801 -0.839 -2.58 l -1.382 -2.251 c -0.289 -0.471 -0.903 -0.617 -1.375 -0.329 c -0.471 0.289 -0.618 0.905 -0.329 1.376 l 1.381 2.25 c 0.313 0.511 0.503 1.095 0.549 1.689 l 0.205 2.634 c 0.119 1.523 0.853 2.967 2.016 3.958 l 2.01 1.714 c 0.455 0.388 0.816 0.885 1.044 1.437 l 1.009 2.441 c 0.584 1.413 1.729 2.558 3.141 3.141 l 2.442 1.01 c 0.551 0.227 1.047 0.588 1.437 1.043 l 1.714 2.01 C 27.618 77.332 29.061 78.067 30.583 78.186 z" />
  </g>
</svg>